<svg xmlns="http://www.w3.org/2000/svg" viewBox="0 0 512 512" width="100%" height="100%">
  <defs>
    <linearGradient id="bubbleGrad" x1="0%" y1="0%" x2="100%" y2="100%">
      <stop offset="0%" stop-color="#6366f1" />
      <stop offset="100%" stop-color="#4f46e5" />
    </linearGradient>
    <radialGradient id="ringGrad" cx="50%" cy="50%" r="50%" fx="30%" fy="30%">
      <stop offset="0%" stop-color="#a5b4fc" />
      <stop offset="100%" stop-color="#6366f1" />
    </radialGradient>
    <filter id="shadow" x="-10%" y="-10%" width="130%" height="130%">
      <feDropShadow dx="0" dy="16" stdDeviation="16" flood-color="#4f46e5" flood-opacity="0.25" />
    </filter>
  </defs>
  <!-- Rounded Rect background of modern app icon shape -->
  <rect width="512" height="512" rx="128" fill="#ffffff" />
  
  <g filter="url(#shadow)">
    <!-- Main Chat Bubble Body -->
    <path d="M120 160 C120 115.82 155.82 80 200 80 L312 80 C356.18 80 392 115.82 392 160 L392 272 C392 316.18 356.18 352 312 352 L200 352 C181.82 352 164.71 358.11 150.85 368.32 C131.79 382.35 120 404.12 120 432 C120 432 120 380 120 376 C120 362.75 120 352 120 352 C120 352 120 352 120 352 M120 160" fill="url(#bubbleGrad)" />
  </g>

  <!-- Dual Chat lines indicator -->
  <rect x="180" y="170" width="152" height="20" rx="10" fill="#ffffff" fill-opacity="0.9" />
  <rect x="180" y="215" width="112" height="20" rx="10" fill="#ffffff" fill-opacity="0.75" />
</svg>
